<svg class="icon" viewBox="0 0 24 24" xmlns="http://www.w3.org/2000/svg" width="18" height="18" aria-hidden="true">
  <path fill="currentColor" d="M22.225 0H1.771C.792 0 0 .771 0 1.723v20.507C0 23.229.792 24 1.771 24h20.451C23.2 24 24 23.229 24 22.23V1.723C24 .771 23.2 0 22.225 0zM7.337 20.452H3.861V9h3.476zM5.6 7.433a1.882 1.882 0 1 1 0-3.765 1.882 1.882 0 0 1 0 3.765zm14.847 13.019h-3.247v-5.438c0-1.295-.025-2.963-1.805-2.963-1.805 0-2.08 1.41-2.08 2.869v5.532H10.07V9h3.32v1.561h.046c.463-.877 1.598-1.805 3.289-1.805 3.516 0 4.168 2.316 4.168 5.329z"/>
</svg>
