<svg class="icon" viewBox="0 0 512 512" xmlns="http://www.w3.org/2000/svg" width="18" height="18" aria-hidden="true">
  <path d="M440 256c0-13.3-10.7-24-24-24-9.6 0-17.9 5.6-21.7 13.7-20.8-14.2-48.5-23.4-79.2-25.6l15.7-73.5 50.7 10.8c1.8 12.2 12.4 21.5 25.1 21.5 14 0 25.3-11.3 25.3-25.3S421.6 129 407.6 129c-9.1 0-17.1 4.8-21.6 12l-59.7-12.7c-2.7-.6-5.4 1.2-6 3.9l-17.7 82.9c-31.6 1.1-60.3 10.3-81.8 24.9-3.9-7.8-12.2-13.1-21.7-13.1-13.3 0-24 10.7-24 24 0 9.2 5.2 17.1 12.9 21.1-1.2 5.7-1.9 11.6-1.9 17.6 0 47.6 53.6 86.2 119.7 86.2S440 321.2 440 273.6c0-6-.6-11.9-1.9-17.6 7.7-4 12.9-11.9 12.9-21zM192.4 307.9c-13.1 0-23.7-10.6-23.7-23.7s10.6-23.7 23.7-23.7 23.7 10.6 23.7 23.7-10.6 23.7-23.7 23.7zm157.2 0c-13.1 0-23.7-10.6-23.7-23.7s10.6-23.7 23.7-23.7S373.3 271.1 373.3 284s-10.6 23.9-23.7 23.9zM256 356.9c-24.1 0-44.7-10.6-53.9-26.1-1.7-2.9 1.5-6.1 4.4-4.5 14.4 8.2 31.6 13.2 49.5 13.2 17.9 0 35.1-5 49.5-13.2 2.9-1.7 6.1 1.5 4.4 4.5-9.2 15.5-29.8 26.1-53.9 26.1z"/>
</svg>

